<svg xmlns="http://www.w3.org/2000/svg" viewBox="0 0 1549 1423.21"><defs><style>.cls-81,.cls-82{font-size:61.4px;fill:#dbdbdb;font-family:WorkSans-Medium, Work Sans;font-weight:500;}.cls-82{letter-spacing:-0.03em;}.cls-83{fill:none;stroke:#ffbf00;stroke-miterlimit:10;stroke-width:4px;}.cls-84{fill:#ffbf00;}.cls-85{fill:#222629;}</style></defs><g id="Layer_2" data-name="Layer 2"><g id="Layer_2-2" data-name="Layer 2"><text class="cls-81" transform="translate(37.85 208.11)">9</text><text class="cls-81" transform="translate(12.49 78.11)">10</text><text class="cls-81" transform="translate(40 736.06)">5</text><text class="cls-81" transform="translate(38.21 603.06)">6</text><text class="cls-82" transform="translate(42.14 471.06)">7</text><text class="cls-81" transform="translate(37.72 338.06)">8</text><text class="cls-81" transform="translate(51.05 1254.01)">1</text><text class="cls-81" transform="translate(39.75 1005.01)">3</text><text class="cls-81" transform="translate(37.54 876.01)">4</text><text class="cls-81" transform="translate(39.69 1134.01)">2</text><text class="cls-81" transform="translate(307.32 1402.01)">1</text><text class="cls-81" transform="translate(149.44 1402.01)">0</text><text class="cls-81" transform="translate(465.96 1402.01)">2</text><text class="cls-81" transform="translate(629.52 1402.51)">3</text><text class="cls-81" transform="translate(799.31 1402.51)">4</text><text class="cls-81" transform="translate(977.27 1402.01)">5</text><text class="cls-81" transform="translate(1151.99 1402.51)">6</text><text class="cls-82" transform="translate(1325.42 1402.01)">7</text><text class="cls-81" transform="translate(1492 1402.01)">8</text><polyline class="cls-83" points="103.97 0 103.97 1326.03 1549 1326.03"/><circle class="cls-84" cx="314.5" cy="317.5" r="85"/><path class="cls-85" d="M314.5,237.5a80,80,0,1,1-80,80,80,80,0,0,1,80-80m0-10a90,90,0,1,0,90,90,90.1,90.1,0,0,0-90-90Z"/><circle class="cls-84" cx="169" cy="318" r="25"/><path class="cls-85" d="M169,298a20,20,0,1,1-20,20,20,20,0,0,1,20-20m0-10a30,30,0,1,0,30,30,30,30,0,0,0-30-30Z"/><circle class="cls-84" cx="169" cy="451" r="60"/><path class="cls-85" d="M169,396a55,55,0,1,1-55,55,55,55,0,0,1,55-55m0-10a65,65,0,1,0,65,65,65.08,65.08,0,0,0-65-65Z"/><circle class="cls-84" cx="314.5" cy="187.5" r="35"/><path class="cls-85" d="M314.5,157.5a30,30,0,1,1-30,30,30,30,0,0,1,30-30m0-10a40,40,0,1,0,40,40,40,40,0,0,0-40-40Z"/><circle class="cls-84" cx="314.5" cy="583.5" r="30"/><path class="cls-85" d="M314.5,558.5a25,25,0,1,1-25,25,25,25,0,0,1,25-25m0-10a35,35,0,1,0,35,35,35,35,0,0,0-35-35Z"/><circle class="cls-84" cx="169" cy="584" r="15"/><path class="cls-85" d="M169,574a10,10,0,1,1-10,10,10,10,0,0,1,10-10m0-10a20,20,0,1,0,20,20,20,20,0,0,0-20-20Z"/><circle class="cls-84" cx="314.5" cy="715.5" r="20"/><path class="cls-85" d="M314.5,700.5a15,15,0,1,1-15,15,15,15,0,0,1,15-15m0-10a25,25,0,1,0,25,25,25,25,0,0,0-25-25Z"/><circle class="cls-84" cx="314.5" cy="984.5" r="15"/><path class="cls-85" d="M314.5,974.5a10,10,0,1,1-10,10,10,10,0,0,1,10-10m0-10a20,20,0,1,0,20,20,20,20,0,0,0-20-20Z"/><circle class="cls-84" cx="169" cy="1115" r="15"/><path class="cls-85" d="M169,1105a10,10,0,1,1-10,10,10,10,0,0,1,10-10m0-10a20,20,0,1,0,20,20,20,20,0,0,0-20-20Z"/><circle class="cls-84" cx="314.5" cy="1233.5" r="15"/><path class="cls-85" d="M314.5,1223.5a10,10,0,1,1-10,10,10,10,0,0,1,10-10m0-10a20,20,0,1,0,20,20,20,20,0,0,0-20-20Z"/><circle class="cls-84" cx="650" cy="318" r="20"/><path class="cls-85" d="M650,303a15,15,0,1,1-15,15,15,15,0,0,1,15-15m0-10a25,25,0,1,0,25,25,25,25,0,0,0-25-25Z"/><circle class="cls-84" cx="486" cy="318" r="45"/><path class="cls-85" d="M486,278a40,40,0,1,1-40,40,40,40,0,0,1,40-40m0-10a50,50,0,1,0,50,50,50.06,50.06,0,0,0-50-50Z"/><circle class="cls-84" cx="486" cy="451" r="15"/><path class="cls-85" d="M486,441a10,10,0,1,1-10,10,10,10,0,0,1,10-10m0-10a20,20,0,1,0,20,20,20,20,0,0,0-20-20Z"/><circle class="cls-84" cx="650" cy="59" r="15"/><path class="cls-85" d="M650,49a10,10,0,1,1-10,10,10,10,0,0,1,10-10m0-10a20,20,0,1,0,20,20,20,20,0,0,0-20-20Z"/><circle class="cls-84" cx="486" cy="59" r="20"/><path class="cls-85" d="M486,44a15,15,0,1,1-15,15,15,15,0,0,1,15-15m0-10a25,25,0,1,0,25,25,25,25,0,0,0-25-25Z"/><circle class="cls-84" cx="650" cy="188" r="15"/><path class="cls-85" d="M650,178a10,10,0,1,1-10,10,10,10,0,0,1,10-10m0-10a20,20,0,1,0,20,20,20,20,0,0,0-20-20Z"/><circle class="cls-84" cx="486" cy="188" r="20"/><path class="cls-85" d="M486,173a15,15,0,1,1-15,15,15,15,0,0,1,15-15m0-10a25,25,0,1,0,25,25,25,25,0,0,0-25-25Z"/><circle class="cls-84" cx="650" cy="584" r="15"/><path class="cls-85" d="M650,574a10,10,0,1,1-10,10,10,10,0,0,1,10-10m0-10a20,20,0,1,0,20,20,20,20,0,0,0-20-20Z"/><circle class="cls-84" cx="486" cy="584" r="25"/><path class="cls-85" d="M486,564a20,20,0,1,1-20,20,20,20,0,0,1,20-20m0-10a30,30,0,1,0,30,30,30,30,0,0,0-30-30Z"/><circle class="cls-84" cx="486" cy="985" r="15"/><path class="cls-85" d="M486,975a10,10,0,1,1-10,10,10,10,0,0,1,10-10m0-10a20,20,0,1,0,20,20,20,20,0,0,0-20-20Z"/><circle class="cls-84" cx="819" cy="318" r="20"/><path class="cls-85" d="M819,303a15,15,0,1,1-15,15,15,15,0,0,1,15-15m0-10a25,25,0,1,0,25,25,25,25,0,0,0-25-25Z"/><circle class="cls-84" cx="997" cy="318" r="20"/><path class="cls-85" d="M997,303a15,15,0,1,1-15,15,15,15,0,0,1,15-15m0-10a25,25,0,1,0,25,25,25,25,0,0,0-25-25Z"/><circle class="cls-84" cx="997" cy="451" r="20"/><path class="cls-85" d="M997,436a15,15,0,1,1-15,15,15,15,0,0,1,15-15m0-10a25,25,0,1,0,25,25,25,25,0,0,0-25-25Z"/><circle class="cls-84" cx="1511" cy="59" r="15"/><path class="cls-85" d="M1511,49a10,10,0,1,1-10,10,10,10,0,0,1,10-10m0-10a20,20,0,1,0,20,20,20,20,0,0,0-20-20Z"/><circle class="cls-84" cx="997" cy="59" r="15"/><path class="cls-85" d="M997,49a10,10,0,1,1-10,10,10,10,0,0,1,10-10m0-10a20,20,0,1,0,20,20,20,20,0,0,0-20-20Z"/><circle class="cls-84" cx="1173" cy="188" r="15"/><path class="cls-85" d="M1173,178a10,10,0,1,1-10,10,10,10,0,0,1,10-10m0-10a20,20,0,1,0,20,20,20,20,0,0,0-20-20Z"/><circle class="cls-84" cx="997" cy="188" r="25"/><path class="cls-85" d="M997,168a20,20,0,1,1-20,20,20,20,0,0,1,20-20m0-10a30,30,0,1,0,30,30,30,30,0,0,0-30-30Z"/><circle class="cls-84" cx="314.5" cy="450.5" r="95"/><path class="cls-85" d="M314.5,360.5a90,90,0,1,1-90,90,90,90,0,0,1,90-90m0-10a100,100,0,1,0,100,100,100.11,100.11,0,0,0-100-100Z"/></g></g></svg>