<svg xmlns="http://www.w3.org/2000/svg" viewBox="0 0 791.6 553.9"><defs><style>.cls-1{opacity:0.2;}.cls-2{fill:#ffbf00;}</style></defs><g id="Layer_2" data-name="Layer 2"><g id="Layer_2-2" data-name="Layer 2"><g class="cls-1"><path class="cls-2" d="M.58,368.54a172,172,0,0,1,211-152.88,172.57,172.57,0,0,1,133-158.55c1.2-.29,2.41-.53,3.61-.76A118.33,118.33,0,0,1,563.43,88.51a105.58,105.58,0,0,1,149,96.16,107.44,107.44,0,0,1-.91,14,92.11,92.11,0,0,1,50.7,158.75c1.6,1.83,3.25,3.64,4.7,5.56a117.34,117.34,0,0,1,24.63,72.24A118.81,118.81,0,0,1,672.88,553.9H171.78c-4.89,0-9.64-.15-14.27-.57A171.42,171.42,0,0,1,.58,368.54ZM748.53,246.43a65.94,65.94,0,0,0-49.28-22.2h-1q-.66,0-1.32,0a13.17,13.17,0,0,1-14-16.87,80.27,80.27,0,0,0,3.21-22.69,79.19,79.19,0,0,0-79.12-79.12,77.47,77.47,0,0,0-45.57,14.5,13.18,13.18,0,0,1-20.83-9.57,92.77,92.77,0,0,0-97.39-84A91.31,91.31,0,0,0,384.09,52.8c.83,0,1.63.13,2.46.15h.53a173,173,0,0,1,18.33,1.45l.71.12a165.52,165.52,0,0,1,17.66,3.35l1,.25a165.84,165.84,0,0,1,16.62,5.07l1.53.56q7.71,2.88,15.1,6.5c.76.37,1.53.71,2.28,1.09,4.56,2.32,9,4.87,13.36,7.6,1,.6,2,1.17,2.95,1.79a146.61,146.61,0,0,1,11.87,8.64c1,.82,2.12,1.54,3.15,2.39a174.15,174.15,0,0,1,13.64,12.42,162,162,0,0,1,27.53,37.16v-.08l.11.16a14.78,14.78,0,0,1,1,1.92A164.6,164.6,0,0,1,547.3,175.9a170.29,170.29,0,0,1,5.84,29.93,147,147,0,0,1,1.06,18.4v2.64a133.22,133.22,0,0,1,83.32,10.3A141.64,141.64,0,0,1,654,246.62a78.75,78.75,0,0,1,8.92,6.71,126,126,0,0,1,14,12.77,118.46,118.46,0,0,1,11.71,14.35,130.92,130.92,0,0,1,19.36,41.36,106.31,106.31,0,0,1,16.83,6.74,123.28,123.28,0,0,1,16.43,9.9c.55.39,1.21.66,1.75,1.06A65.93,65.93,0,0,0,748.53,246.43ZM159.81,527.05c3.95.37,7.91.48,12,.48h501.1a92.42,92.42,0,0,0,92.31-92.31A91.45,91.45,0,0,0,746,378.94a85.5,85.5,0,0,0-12.08-12.86,93.81,93.81,0,0,0-21-13.94,86,86,0,0,0-19.12-6.84A13.19,13.19,0,0,1,684,335.11a105.13,105.13,0,0,0-17-39.46,95.2,95.2,0,0,0-9.23-11.38,107.48,107.48,0,0,0-11.87-10.8,59.83,59.83,0,0,0-6.6-4.92,112.24,112.24,0,0,0-13.18-7.63,110.17,110.17,0,0,0-10.25-4.2c-2.53-.89-5.12-1.61-7.71-2.3-.87-.24-1.72-.53-2.64-.74-2.77-.68-5.56-1.18-8.36-1.63-.79-.11-1.58-.29-2.37-.39-2.52-.34-5-.54-7.59-.7-1.32-.08-2.53-.18-3.81-.21-2.48-.08-4.93,0-7.38,0a19.3,19.3,0,0,0-2.64.12c-2.47.16-4.89.43-7.31.76-.91.12-1.83.21-2.72.36-2.48.41-4.94,1-7.36,1.55-.77.19-1.55.32-2.31.52a95.49,95.49,0,0,0-9.23,3A13.19,13.19,0,0,1,526.62,243a136.51,136.51,0,0,0,1.2-18.74,126.26,126.26,0,0,0-.84-15.31,148.31,148.31,0,0,0-5-25.57,137.16,137.16,0,0,0-11.67-28.15c-.09-.17-.18-.35-.26-.52s-.32-.55-.46-.84a135.73,135.73,0,0,0-23.13-31.15A144.27,144.27,0,0,0,382.77,79.18c-4.39,0-8.77.25-13,.59-3.79.37-7.47.83-11.12,1.54l-.75.12a71.75,71.75,0,0,0-7.43,1.32A146,146,0,0,0,237.71,224.23c0,2.85.13,5.7.25,8.53a13.18,13.18,0,0,1-17.64,13,142.62,142.62,0,0,0-48.54-8.32,145.05,145.05,0,0,0-12,289.63Z"/></g></g></g></svg>