<svg xmlns="http://www.w3.org/2000/svg" viewBox="0 0 444.55 728.23"><defs><style>.cls-71{fill:#ffbf00;}.cls-70{fill:#222629;}</style></defs><g id="Layer_2" data-name="Layer 2"><g id="Layer_2-2" data-name="Layer 2"><path class="cls-71" d="M368.51,473.23c-14.11,0-25.81-9.89-27.74-22.73-1.92,12.84-13.61,22.73-27.71,22.73-15.44,0-28-11.87-28-26.46,0-9.85-.07-99.49-.12-175.58a22.14,22.14,0,0,1-21,14.25c-12.09,0-21.93-9.42-21.93-21V151c0-28.59,24.88-51.85,55.47-51.85h86.62c30.58,0,55.46,23.26,55.46,51.85V264.44c0,11.58-9.84,21-21.94,21a22.14,22.14,0,0,1-21-14.32V446.77C396.59,461.36,384,473.23,368.51,473.23ZM340.78,94.64a44.82,44.82,0,1,1,44.81-44.81A44.87,44.87,0,0,1,340.78,94.64Z"/><path class="cls-70" d="M340.78,10A39.82,39.82,0,1,1,301,49.83,39.82,39.82,0,0,1,340.78,10m43.31,94.14c27.74,0,50.46,21,50.46,46.85V264.44c0,8.84-7.46,16-16.94,16s-17.17-7.17-17.17-16V162.15h-8.85V446.77c0,11.84-10.38,21.46-23.08,21.46s-23-9.62-23-21.46V281.5h-9.44V446.77c0,11.84-10.29,21.46-23,21.46s-23-9.62-23-21.46c0-17.54-.2-284.62-.2-284.62H281.1V264.44c0,8.84-7.68,16-17.17,16s-16.93-7.17-16.93-16V151c0-25.87,22.71-46.85,50.47-46.85h86.62M340.78,0A49.82,49.82,0,0,0,318,94.14H297.47C264.13,94.14,237,119.64,237,151V264.44c0,14.34,12.08,26,26.93,26a27.88,27.88,0,0,0,16-5c.05,72.62.11,152.09.11,161.33,0,17.35,14.81,31.46,33,31.46a33.38,33.38,0,0,0,27.71-14.41,33.43,33.43,0,0,0,27.74,14.41c18.24,0,33.08-14.11,33.08-31.46V285.43a27.85,27.85,0,0,0,16,5c14.86,0,26.94-11.66,26.94-26V151c0-31.35-27.12-56.85-60.46-56.85H363.53A49.82,49.82,0,0,0,340.78,0Z"/><path class="cls-71" d="M131.51,473.23c-14.11,0-25.81-9.89-27.74-22.73-1.92,12.84-13.61,22.73-27.71,22.73-15.44,0-28-11.87-28-26.46,0-9.85-.07-99.49-.12-175.58a22.14,22.14,0,0,1-21,14.25C14.84,285.44,5,276,5,264.44V151C5,122.4,29.88,99.14,60.47,99.14h86.62c30.58,0,55.46,23.26,55.46,51.85V264.44c0,11.58-9.84,21-21.94,21a22.14,22.14,0,0,1-21-14.32V446.77C159.59,461.36,147,473.23,131.51,473.23ZM103.78,94.64a44.82,44.82,0,1,1,44.81-44.81A44.87,44.87,0,0,1,103.78,94.64Z"/><path class="cls-70" d="M103.78,10A39.82,39.82,0,1,1,64,49.83,39.82,39.82,0,0,1,103.78,10m43.31,94.14c27.74,0,50.46,21,50.46,46.85V264.44c0,8.84-7.46,16-16.94,16s-17.17-7.17-17.17-16V162.15h-8.85V446.77c0,11.84-10.38,21.46-23.08,21.46s-23-9.62-23-21.46V281.5H99.05V446.77c0,11.84-10.29,21.46-23,21.46s-23-9.62-23-21.46c0-17.54-.2-284.62-.2-284.62H44.1V264.44c0,8.84-7.68,16-17.17,16S10,273.27,10,264.44V151c0-25.87,22.71-46.85,50.47-46.85h86.62M103.78,0A49.82,49.82,0,0,0,81,94.14H60.47C27.13,94.14,0,119.64,0,151V264.44c0,14.34,12.08,26,26.93,26a27.88,27.88,0,0,0,16-5c.05,72.62.11,152.09.11,161.33,0,17.35,14.81,31.46,33,31.46a33.38,33.38,0,0,0,27.71-14.41,33.43,33.43,0,0,0,27.74,14.41c18.24,0,33.08-14.11,33.08-31.46V285.43a27.85,27.85,0,0,0,16,5c14.86,0,26.94-11.66,26.94-26V151c0-31.35-27.12-56.85-60.46-56.85H126.53A49.82,49.82,0,0,0,103.78,0Z"/><path class="cls-71" d="M250.51,723.23c-14.11,0-25.81-9.89-27.74-22.73-1.92,12.84-13.61,22.73-27.71,22.73-15.44,0-28-11.87-28-26.46,0-9.85-.07-99.49-.12-175.58a22.14,22.14,0,0,1-21,14.25c-12.09,0-21.93-9.42-21.93-21V401c0-28.59,24.88-51.85,55.47-51.85h86.62c30.58,0,55.46,23.26,55.46,51.85V514.44c0,11.58-9.84,21-21.94,21a22.14,22.14,0,0,1-21-14.32V696.77C278.59,711.36,266,723.23,250.51,723.23ZM222.78,344.64a44.82,44.82,0,1,1,44.81-44.81A44.87,44.87,0,0,1,222.78,344.64Z"/><path class="cls-70" d="M222.78,260A39.82,39.82,0,1,1,183,299.83,39.82,39.82,0,0,1,222.78,260m43.31,94.14c27.74,0,50.46,21,50.46,46.85V514.44c0,8.84-7.46,16-16.94,16s-17.17-7.17-17.17-16V412.15h-8.85V696.77c0,11.84-10.38,21.46-23.08,21.46s-23-9.62-23-21.46V531.5h-9.44V696.77c0,11.84-10.29,21.46-23,21.46s-23-9.62-23-21.46c0-17.54-.2-284.62-.2-284.62H163.1V514.44c0,8.84-7.68,16-17.17,16s-16.93-7.17-16.93-16V401c0-25.87,22.71-46.85,50.47-46.85h86.62M222.78,250A49.82,49.82,0,0,0,200,344.14H179.47c-33.34,0-60.47,25.5-60.47,56.85V514.44c0,14.34,12.08,26,26.93,26a27.88,27.88,0,0,0,16-5c.05,72.62.11,152.09.11,161.33,0,17.35,14.81,31.46,33,31.46a33.38,33.38,0,0,0,27.71-14.41,33.43,33.43,0,0,0,27.74,14.41c18.24,0,33.08-14.11,33.08-31.46V535.43a27.85,27.85,0,0,0,16,5c14.86,0,26.94-11.66,26.94-26V401c0-31.35-27.12-56.85-60.46-56.85H245.53A49.82,49.82,0,0,0,222.78,250Z"/></g></g></svg>