<svg xmlns="http://www.w3.org/2000/svg" viewBox="0 0 725.02 859.47"><defs><style>.cls-71{fill:#ffbf00;}.cls-70{fill:#222629;}</style></defs><g id="Layer_2" data-name="Layer 2"><g id="Layer_2-2" data-name="Layer 2"><path class="cls-71" d="M385.49,475.47c-12.25,0-22.68-7.46-26.48-17.83-3.8,10.37-14.23,17.83-26.48,17.83-15.49,0-28.09-11.87-28.09-26.46V327.11l-20.84.54,10.33-92.92-5.82,34.89c-.25,11.38-10.1,20.56-22.17,20.56s-21.94-9.42-21.94-21v-.38l17.59-116.68.11-.34c10-33,29.1-50.4,55.24-50.4h84.14c26.14,0,45.24,17.43,55.24,50.4l.11.34L474,268.8v.38c0,11.58-9.84,21-21.95,21s-21.91-9.18-22.16-20.56l-5.82-34.9,10.33,92.93-20.84-.54V449C413.58,463.6,401,475.47,385.49,475.47Z"/><path class="cls-70" d="M401.08,106.38c27.73,0,42.72,21.32,50.46,46.85l17.48,116c0,8.83-7.46,16-16.95,16s-17.16-7.17-17.16-16L417.43,164.39l-6.1.78L428.81,322.5,408.58,322V449c0,11.84-10.38,21.46-23.09,21.46s-23-9.62-23-21.46V320h-6.94V449c0,11.84-10.29,21.46-23,21.46s-23.09-9.62-23.09-21.46V322l-20.23.53,17.48-157.33-6.1-.78L283.11,269.18c0,8.83-7.7,16-17.16,16S249,278,249,269.18l17.48-116c7.74-25.53,22.73-46.85,50.46-46.85h84.14m0-10H316.94c-15.72,0-29.15,5.69-39.94,16.93-8.6,9-15.35,21.41-20.09,37l-.21.7-.11.72-17.48,116-.11.74v.75c0,14.33,12.09,26,26.95,26a27.84,27.84,0,0,0,16.86-5.63l-3.54,31.85L278,332.8l11.47-.3,10-.26V449c0,17.35,14.84,31.46,33.09,31.46A33.53,33.53,0,0,0,359,467.78a33.53,33.53,0,0,0,26.48,12.69c18.25,0,33.09-14.11,33.09-31.46V332.24l10,.26,11.47.3-1.27-11.4-3.54-31.85a27.84,27.84,0,0,0,16.86,5.63c14.86,0,26.95-11.67,26.95-26v-.75l-.11-.74L461.43,151.74l-.11-.72-.21-.7c-4.74-15.6-11.49-28.06-20.09-37-10.79-11.24-24.22-16.93-39.94-16.93Z"/><path class="cls-71" d="M353.89,96.39a44.77,44.77,0,0,1,0-88.65V7.2l5.13.1,5.11-.12v.56a44.78,44.78,0,0,1,0,88.65v.54l-5.13-.1-5.11.12Z"/><path class="cls-70" d="M359.13,12.3v0a39.77,39.77,0,0,1,0,79.49v0h-.24v0a39.77,39.77,0,0,1,0-79.49v0h.24M348.89,2V3.59a49.78,49.78,0,0,0,0,96.94v1.58l10.12-.28,10.12.29v-1.59a49.78,49.78,0,0,0,0-96.94V2L359,2.3,348.89,2Z"/><path class="cls-71" d="M146.49,475.47c-12.25,0-22.68-7.46-26.48-17.83-3.8,10.37-14.23,17.83-26.48,17.83C78,475.47,65.44,463.6,65.44,449V327.11l-20.84.54,10.33-92.92-5.82,34.89C48.86,281,39,290.18,26.94,290.18S5,280.76,5,269.18v-.38L22.59,152.12l.11-.34c10-33,29.1-50.4,55.24-50.4h84.14c26.14,0,45.24,17.43,55.24,50.4l.11.34L235,268.8v.38c0,11.58-9.84,21-22,21s-21.91-9.18-22.16-20.56l-5.82-34.9,10.33,92.93-20.84-.54V449C174.58,463.6,162,475.47,146.49,475.47Z"/><path class="cls-70" d="M162.08,106.38c27.73,0,42.72,21.32,50.46,46.85l17.48,116c0,8.83-7.46,16-17,16s-17.16-7.17-17.16-16L178.43,164.39l-6.1.78L189.81,322.5,169.58,322V449c0,11.84-10.38,21.46-23.09,21.46s-23-9.62-23-21.46V320h-6.94V449c0,11.84-10.29,21.46-23,21.46S70.44,460.85,70.44,449V322l-20.23.53L67.69,165.17l-6.1-.78L44.11,269.18c0,8.83-7.7,16-17.16,16S10,278,10,269.18l17.48-116c7.74-25.53,22.73-46.85,50.46-46.85h84.14m0-10H77.94c-15.72,0-29.15,5.69-39.94,16.93-8.6,9-15.35,21.41-20.09,37l-.21.7-.11.72L.11,267.69l-.11.74v.75c0,14.33,12.09,26,27,26a27.84,27.84,0,0,0,16.86-5.63L40.27,321.4,39,332.8l11.47-.3,10-.26V449c0,17.35,14.84,31.46,33.09,31.46A33.53,33.53,0,0,0,120,467.78a33.53,33.53,0,0,0,26.48,12.69c18.25,0,33.09-14.11,33.09-31.46V332.24l10,.26,11.47.3-1.27-11.4-3.54-31.85a27.84,27.84,0,0,0,16.86,5.63c14.86,0,27-11.67,27-26v-.75l-.11-.74L222.43,151.74l-.11-.72-.21-.7c-4.74-15.6-11.49-28.06-20.09-37-10.79-11.24-24.22-16.93-39.94-16.93Z"/><path class="cls-71" d="M114.89,96.39a44.77,44.77,0,0,1,0-88.65V7.2l5.13.1,5.11-.12v.56a44.78,44.78,0,0,1,0,88.65v.54l-5.13-.1-5.11.12Z"/><path class="cls-70" d="M120.13,12.3v0a39.77,39.77,0,0,1,0,79.49v0h-.24v0a39.77,39.77,0,0,1,0-79.49v0h.24M109.89,2V3.59a49.78,49.78,0,0,0,0,96.94v1.58l10.12-.28,10.12.29v-1.59a49.78,49.78,0,0,0,0-96.94V2L120,2.3,109.89,2Z"/><path class="cls-71" d="M631.49,473.47c-12.25,0-22.68-7.46-26.48-17.83-3.8,10.37-14.23,17.83-26.48,17.83-15.49,0-28.09-11.87-28.09-26.46V325.11l-20.84.54,10.33-92.92-5.82,34.89c-.25,11.38-10.1,20.56-22.17,20.56s-21.94-9.42-21.94-21v-.38l17.59-116.68.11-.34c10-33,29.1-50.4,55.24-50.4h84.14c26.14,0,45.24,17.43,55.24,50.4l.11.34L720,266.8v.38c0,11.58-9.84,21-21.95,21s-21.91-9.18-22.16-20.56l-5.82-34.9,10.33,92.93-20.84-.54V447C659.58,461.6,647,473.47,631.49,473.47Z"/><path class="cls-70" d="M647.08,104.38c27.73,0,42.72,21.32,50.46,46.85l17.48,116c0,8.83-7.46,16-16.95,16s-17.16-7.17-17.16-16L663.43,162.39l-6.1.78L674.81,320.5,654.58,320V447c0,11.84-10.38,21.46-23.09,21.46s-23-9.62-23-21.46V318h-6.94V447c0,11.84-10.29,21.46-23,21.46s-23.09-9.62-23.09-21.46V320l-20.23.53,17.48-157.33-6.1-.78L529.11,267.18c0,8.83-7.7,16-17.16,16S495,276,495,267.18l17.48-116c7.74-25.53,22.73-46.85,50.46-46.85h84.14m0-10H562.94c-15.72,0-29.15,5.69-39.94,16.93-8.6,9-15.35,21.41-20.09,37l-.21.7-.11.72-17.48,116-.11.74v.75c0,14.33,12.09,26,26.95,26a27.84,27.84,0,0,0,16.86-5.63l-3.54,31.85L524,330.8l11.47-.3,10-.26V447c0,17.35,14.84,31.46,33.09,31.46A33.53,33.53,0,0,0,605,465.78a33.53,33.53,0,0,0,26.48,12.69c18.25,0,33.09-14.11,33.09-31.46V330.24l10,.26,11.47.3-1.27-11.4-3.54-31.85a27.84,27.84,0,0,0,16.86,5.63c14.86,0,26.95-11.67,26.95-26v-.75l-.11-.74L707.43,149.74l-.11-.72-.21-.7c-4.74-15.6-11.49-28.06-20.09-37-10.79-11.24-24.22-16.93-39.94-16.93Z"/><path class="cls-71" d="M599.89,94.39a44.77,44.77,0,0,1,0-88.65V5.2l5.13.1,5.11-.12v.56a44.78,44.78,0,0,1,0,88.65v.54l-5.13-.1-5.11.12Z"/><path class="cls-70" d="M605.13,10.3v0a39.77,39.77,0,0,1,0,79.49v0h-.24v0a39.77,39.77,0,0,1,0-79.49v0h.24M594.89,0V1.59a49.78,49.78,0,0,0,0,96.94v1.58L605,99.83l10.12.29V98.53a49.78,49.78,0,0,0,0-96.94V0L605,.3,594.89,0Z"/><path class="cls-71" d="M508.49,726.47c-12.25,0-22.68-7.46-26.48-17.83-3.8,10.37-14.23,17.83-26.48,17.83-15.49,0-28.09-11.87-28.09-26.46V578.11l-20.84.54,10.33-92.92-5.82,34.89c-.25,11.38-10.1,20.56-22.17,20.56s-21.94-9.42-21.94-21v-.38l17.59-116.68.11-.34c10-33,29.1-50.4,55.24-50.4h84.14c26.14,0,45.24,17.43,55.24,50.4l.11.34L597,519.8v.38c0,11.58-9.84,21-21.95,21s-21.91-9.18-22.16-20.56l-5.82-34.9,10.33,92.93-20.84-.54V700C536.58,714.6,524,726.47,508.49,726.47Z"/><path class="cls-70" d="M524.08,357.38c27.73,0,42.72,21.32,50.46,46.85L592,520.18c0,8.83-7.46,16-16.95,16s-17.16-7.17-17.16-16L540.43,415.39l-6.1.78L551.81,573.5,531.58,573V700c0,11.84-10.38,21.46-23.09,21.46s-23-9.62-23-21.46V571h-6.94V700c0,11.84-10.29,21.46-23,21.46s-23.09-9.62-23.09-21.46V573l-20.23.53,17.48-157.33-6.1-.78L406.11,520.18c0,8.83-7.7,16-17.16,16S372,529,372,520.18l17.48-115.95c7.74-25.53,22.73-46.85,50.46-46.85h84.14m0-10H439.94c-15.72,0-29.15,5.69-39.94,16.93-8.6,8.95-15.35,21.41-20.09,37l-.21.7-.11.72-17.48,116-.11.74v.75c0,14.33,12.09,26,26.95,26a27.84,27.84,0,0,0,16.86-5.63l-3.54,31.85L401,583.8l11.47-.3,10-.26V700c0,17.35,14.84,31.46,33.09,31.46A33.53,33.53,0,0,0,482,718.78a33.53,33.53,0,0,0,26.48,12.69c18.25,0,33.09-14.11,33.09-31.46V583.24l10,.26,11.47.3-1.27-11.4-3.54-31.85a27.84,27.84,0,0,0,16.86,5.63c14.86,0,26.95-11.67,26.95-26v-.75l-.11-.74-17.48-116-.11-.72-.21-.7c-4.74-15.6-11.49-28.06-20.09-37-10.79-11.24-24.22-16.93-39.94-16.93Z"/><path class="cls-71" d="M476.89,347.39a44.77,44.77,0,0,1,0-88.65v-.54l5.13.1,5.11-.12v.56a44.78,44.78,0,0,1,0,88.65v.54l-5.13-.1-5.11.12Z"/><path class="cls-70" d="M482.13,263.3v0a39.77,39.77,0,0,1,0,79.49v0h-.24v0a39.77,39.77,0,0,1,0-79.49v0h.24M471.89,253v1.59a49.78,49.78,0,0,0,0,96.94v1.58l10.12-.28,10.12.29v-1.59a49.78,49.78,0,0,0,0-96.94V253L482,253.3l-10.13-.3Z"/><path class="cls-71" d="M269.49,726.47c-12.25,0-22.68-7.46-26.48-17.83-3.8,10.37-14.23,17.83-26.48,17.83-15.49,0-28.09-11.87-28.09-26.46V578.11l-20.84.54,10.33-92.92-5.82,34.89c-.25,11.38-10.1,20.56-22.17,20.56s-21.94-9.42-21.94-21v-.38l17.59-116.68.11-.34c10-33,29.1-50.4,55.24-50.4h84.14c26.14,0,45.24,17.43,55.24,50.4l.11.34L358,519.8v.38c0,11.58-9.84,21-21.95,21s-21.91-9.18-22.16-20.56l-5.82-34.9,10.33,92.93-20.84-.54V700C297.58,714.6,285,726.47,269.49,726.47Z"/><path class="cls-70" d="M285.08,357.38c27.73,0,42.72,21.32,50.46,46.85L353,520.18c0,8.83-7.46,16-16.95,16s-17.16-7.17-17.16-16L301.43,415.39l-6.1.78L312.81,573.5,292.58,573V700c0,11.84-10.38,21.46-23.09,21.46s-23-9.62-23-21.46V571h-6.94V700c0,11.84-10.29,21.46-23,21.46s-23.09-9.62-23.09-21.46V573l-20.23.53,17.48-157.33-6.1-.78L167.11,520.18c0,8.83-7.7,16-17.16,16S133,529,133,520.18l17.48-115.95c7.74-25.53,22.73-46.85,50.46-46.85h84.14m0-10H200.94c-15.72,0-29.15,5.69-39.94,16.93-8.6,8.95-15.35,21.41-20.09,37l-.21.7-.11.72-17.48,116-.11.74v.75c0,14.33,12.09,26,26.95,26a27.84,27.84,0,0,0,16.86-5.63l-3.54,31.85L162,583.8l11.47-.3,10-.26V700c0,17.35,14.84,31.46,33.09,31.46A33.53,33.53,0,0,0,243,718.78a33.53,33.53,0,0,0,26.48,12.69c18.25,0,33.09-14.11,33.09-31.46V583.24l10,.26,11.47.3-1.27-11.4-3.54-31.85a27.84,27.84,0,0,0,16.86,5.63c14.86,0,26.95-11.67,26.95-26v-.75l-.11-.74-17.48-116-.11-.72-.21-.7c-4.74-15.6-11.49-28.06-20.09-37-10.79-11.24-24.22-16.93-39.94-16.93Z"/><path class="cls-71" d="M237.89,347.39a44.77,44.77,0,0,1,0-88.65v-.54l5.13.1,5.11-.12v.56a44.78,44.78,0,0,1,0,88.65v.54l-5.13-.1-5.11.12Z"/><path class="cls-70" d="M243.13,263.3v0a39.77,39.77,0,0,1,0,79.49v0h-.24v0a39.77,39.77,0,0,1,0-79.49v0h.24M232.89,253v1.59a49.78,49.78,0,0,0,0,96.94v1.58l10.12-.28,10.12.29v-1.59a49.78,49.78,0,0,0,0-96.94V253L243,253.3l-10.13-.3Z"/><path class="cls-71" d="M375.49,854.47c-12.25,0-22.68-7.46-26.48-17.83-3.8,10.37-14.23,17.83-26.48,17.83-15.49,0-28.09-11.87-28.09-26.46V706.11l-20.84.54,10.33-92.92-5.82,34.89c-.25,11.38-10.1,20.56-22.17,20.56s-21.94-9.42-21.94-21v-.38l17.59-116.68.11-.34c10-33,29.1-50.4,55.24-50.4h84.14c26.14,0,45.24,17.43,55.24,50.4l.11.34L464,647.8v.38c0,11.58-9.84,21-21.95,21s-21.91-9.18-22.16-20.56l-5.82-34.9,10.33,92.93-20.84-.54V828C403.58,842.6,391,854.47,375.49,854.47Z"/><path class="cls-70" d="M391.08,485.38c27.73,0,42.72,21.32,50.46,46.85L459,648.18c0,8.83-7.46,16-16.95,16s-17.16-7.17-17.16-16L407.43,543.39l-6.1.78L418.81,701.5,398.58,701V828c0,11.84-10.38,21.46-23.09,21.46s-23-9.62-23-21.46V699h-6.94V828c0,11.84-10.29,21.46-23,21.46s-23.09-9.62-23.09-21.46V701l-20.23.53,17.48-157.33-6.1-.78L273.11,648.18c0,8.83-7.7,16-17.16,16S239,657,239,648.18l17.48-115.95c7.74-25.53,22.73-46.85,50.46-46.85h84.14m0-10H306.94c-15.72,0-29.15,5.69-39.94,16.93-8.6,8.95-15.35,21.41-20.09,37l-.21.7-.11.72-17.48,116-.11.74v.75c0,14.33,12.09,26,26.95,26a27.84,27.84,0,0,0,16.86-5.63l-3.54,31.85L268,711.8l11.47-.3,10-.26V828c0,17.35,14.84,31.46,33.09,31.46A33.53,33.53,0,0,0,349,846.78a33.53,33.53,0,0,0,26.48,12.69c18.25,0,33.09-14.11,33.09-31.46V711.24l10,.26,11.47.3-1.27-11.4-3.54-31.85a27.84,27.84,0,0,0,16.86,5.63c14.86,0,26.95-11.67,26.95-26v-.75l-.11-.74-17.48-116-.11-.72-.21-.7c-4.74-15.6-11.49-28.06-20.09-37-10.79-11.24-24.22-16.93-39.94-16.93Z"/><path class="cls-71" d="M343.89,475.39a44.77,44.77,0,0,1,0-88.65v-.54l5.13.1,5.11-.12v.56a44.78,44.78,0,0,1,0,88.65v.54l-5.13-.1-5.11.12Z"/><path class="cls-70" d="M349.13,391.3v0a39.77,39.77,0,0,1,0,79.49v0h-.24v0a39.77,39.77,0,0,1,0-79.49v0h.24M338.89,381v1.59a49.78,49.78,0,0,0,0,96.94v1.58l10.12-.28,10.12.29v-1.59a49.78,49.78,0,0,0,0-96.94V381L349,381.3l-10.13-.3Z"/></g></g></svg>