<svg xmlns="http://www.w3.org/2000/svg" viewBox="0 0 975.1 183.48"><defs><style>.cls-3{fill:#ffbf00;}.cls-4{fill:#6a6e70;}</style></defs><g id="Layer_2" data-name="Layer 2"><g id="Layer_2-2" data-name="Layer 2"><path class="cls-3" d="M37.55,0A15.95,15.95,0,1,0,53.49,16,15.94,15.94,0,0,0,37.55,0ZM20.21,37.69C9.09,37.69,0,46.1,0,56.45v45.43a6.57,6.57,0,0,0,6.78,6.41,6.66,6.66,0,0,0,6.88-6.41v-41h3.5s.08,106.94.08,114c0,4.74,4.13,8.59,9.21,8.59s9.21-3.85,9.21-8.59V108.71h3.78v66.18c0,4.74,4.12,8.59,9.21,8.59s9.25-3.85,9.25-8.59v-114h3.54v41a6.65,6.65,0,0,0,6.87,6.41,6.58,6.58,0,0,0,6.79-6.41V56.45c0-10.35-9.1-18.76-20.21-18.76Z"/><path class="cls-4" d="M237.55,0a15.95,15.95,0,1,0,15.94,16A15.94,15.94,0,0,0,237.55,0ZM220.21,37.69C209.09,37.69,200,46.1,200,56.45v45.43a6.57,6.57,0,0,0,6.78,6.41,6.66,6.66,0,0,0,6.88-6.41v-41h3.5s.08,106.94.08,114c0,4.74,4.13,8.59,9.21,8.59s9.21-3.85,9.21-8.59V108.71h3.78v66.18c0,4.74,4.12,8.59,9.21,8.59s9.25-3.85,9.25-8.59v-114h3.54v41a6.65,6.65,0,0,0,6.87,6.41,6.58,6.58,0,0,0,6.79-6.41V56.45c0-10.35-9.1-18.76-20.21-18.76Z"/><path class="cls-4" d="M337.55,0a15.95,15.95,0,1,0,15.94,16A15.94,15.94,0,0,0,337.55,0ZM320.21,37.69C309.09,37.69,300,46.1,300,56.45v45.43a6.57,6.57,0,0,0,6.78,6.41,6.66,6.66,0,0,0,6.88-6.41v-41h3.5s.08,106.94.08,114c0,4.74,4.13,8.59,9.21,8.59s9.21-3.85,9.21-8.59V108.71h3.78v66.18c0,4.74,4.12,8.59,9.21,8.59s9.25-3.85,9.25-8.59v-114h3.54v41a6.65,6.65,0,0,0,6.87,6.41,6.58,6.58,0,0,0,6.79-6.41V56.45c0-10.35-9.1-18.76-20.21-18.76Z"/><path class="cls-4" d="M437.55,0a15.95,15.95,0,1,0,15.94,16A15.94,15.94,0,0,0,437.55,0ZM420.21,37.69C409.09,37.69,400,46.1,400,56.45v45.43a6.57,6.57,0,0,0,6.78,6.41,6.66,6.66,0,0,0,6.88-6.41v-41h3.5s.08,106.94.08,114c0,4.74,4.13,8.59,9.21,8.59s9.21-3.85,9.21-8.59V108.71h3.78v66.18c0,4.74,4.12,8.59,9.21,8.59s9.25-3.85,9.25-8.59v-114h3.54v41a6.65,6.65,0,0,0,6.87,6.41,6.58,6.58,0,0,0,6.79-6.41V56.45c0-10.35-9.1-18.76-20.21-18.76Z"/><path class="cls-4" d="M537.55,0a15.95,15.95,0,1,0,15.94,16A15.94,15.94,0,0,0,537.55,0ZM520.21,37.69C509.09,37.69,500,46.1,500,56.45v45.43a6.57,6.57,0,0,0,6.78,6.41,6.66,6.66,0,0,0,6.88-6.41v-41h3.5s.08,106.94.08,114c0,4.74,4.13,8.59,9.21,8.59s9.21-3.85,9.21-8.59V108.71h3.78v66.18c0,4.74,4.12,8.59,9.21,8.59s9.25-3.85,9.25-8.59v-114h3.54v41a6.65,6.65,0,0,0,6.87,6.41,6.58,6.58,0,0,0,6.79-6.41V56.45c0-10.35-9.1-18.76-20.21-18.76Z"/><path class="cls-4" d="M637.55,0a15.95,15.95,0,1,0,15.94,16A15.94,15.94,0,0,0,637.55,0ZM620.21,37.69C609.09,37.69,600,46.1,600,56.45v45.43a6.57,6.57,0,0,0,6.78,6.41,6.66,6.66,0,0,0,6.88-6.41v-41h3.5s.08,106.94.08,114c0,4.74,4.13,8.59,9.21,8.59s9.21-3.85,9.21-8.59V108.71h3.78v66.18c0,4.74,4.12,8.59,9.21,8.59s9.25-3.85,9.25-8.59v-114h3.54v41a6.65,6.65,0,0,0,6.87,6.41,6.58,6.58,0,0,0,6.79-6.41V56.45c0-10.35-9.1-18.76-20.21-18.76Z"/><path class="cls-4" d="M737.55,0a15.95,15.95,0,1,0,15.94,16A15.94,15.94,0,0,0,737.55,0ZM720.21,37.69C709.09,37.69,700,46.1,700,56.45v45.43a6.57,6.57,0,0,0,6.78,6.41,6.66,6.66,0,0,0,6.88-6.41v-41h3.5s.08,106.94.08,114c0,4.74,4.13,8.59,9.21,8.59s9.21-3.85,9.21-8.59V108.71h3.78v66.18c0,4.74,4.12,8.59,9.21,8.59s9.25-3.85,9.25-8.59v-114h3.54v41a6.65,6.65,0,0,0,6.87,6.41,6.58,6.58,0,0,0,6.79-6.41V56.45c0-10.35-9.1-18.76-20.21-18.76Z"/><path class="cls-4" d="M837.55,0a15.95,15.95,0,1,0,15.94,16A15.94,15.94,0,0,0,837.55,0ZM820.21,37.69C809.09,37.69,800,46.1,800,56.45v45.43a6.57,6.57,0,0,0,6.78,6.41,6.66,6.66,0,0,0,6.88-6.41v-41h3.5s.08,106.94.08,114c0,4.74,4.13,8.59,9.21,8.59s9.21-3.85,9.21-8.59V108.71h3.78v66.18c0,4.74,4.12,8.59,9.21,8.59s9.25-3.85,9.25-8.59v-114h3.54v41a6.65,6.65,0,0,0,6.87,6.41,6.58,6.58,0,0,0,6.79-6.41V56.45c0-10.35-9.1-18.76-20.21-18.76Z"/><path class="cls-4" d="M937.55,0a15.95,15.95,0,1,0,15.94,16A15.94,15.94,0,0,0,937.55,0ZM920.21,37.69C909.09,37.69,900,46.1,900,56.45v45.43a6.57,6.57,0,0,0,6.78,6.41,6.66,6.66,0,0,0,6.88-6.41v-41h3.5s.08,106.94.08,114c0,4.74,4.13,8.59,9.21,8.59s9.21-3.85,9.21-8.59V108.71h3.78v66.18c0,4.74,4.12,8.59,9.21,8.59s9.25-3.85,9.25-8.59v-114h3.54v41a6.65,6.65,0,0,0,6.87,6.41,6.58,6.58,0,0,0,6.79-6.41V56.45c0-10.35-9.1-18.76-20.21-18.76Z"/><path class="cls-3" d="M137.55,0a15.95,15.95,0,1,0,8,29.72V2.17A15.84,15.84,0,0,0,137.55,0Z"/><path class="cls-3" d="M120.21,37.69C109.09,37.69,100,46.1,100,56.45v45.43a6.57,6.57,0,0,0,6.78,6.41,6.66,6.66,0,0,0,6.88-6.41v-41h3.5s.08,106.94.08,114c0,4.74,4.13,8.59,9.21,8.59s9.21-3.85,9.21-8.59V108.71h3.78v66.18a8.65,8.65,0,0,0,6.11,8.08V37.69Z"/><path class="cls-4" d="M154.89,37.69h-9.34V183a9.6,9.6,0,0,0,3.1.51c5.09,0,9.25-3.85,9.25-8.59v-114h3.54v41a6.65,6.65,0,0,0,6.87,6.41,6.58,6.58,0,0,0,6.79-6.41V56.45C175.1,46.1,166,37.69,154.89,37.69Z"/><path class="cls-4" d="M153.49,16a15.93,15.93,0,0,0-7.94-13.78V29.72A15.93,15.93,0,0,0,153.49,16Z"/></g></g></svg>