<svg xmlns="http://www.w3.org/2000/svg" viewBox="0 0 543.23 614.23"><defs><style>.cls-60{fill:none;}.cls-61{fill:#6a6e70;}.cls-62{fill:#ffbf00;}</style></defs><g id="Layer_2" data-name="Layer 2"><g id="Layer_2-2" data-name="Layer 2"><path class="cls-60" d="M317.46,203.94,294,344.41c0,11.83-10.32,21.45-23,21.45a23.91,23.91,0,0,1-8.74-1.63,23.89,23.89,0,0,1-6.78,1c-12.69,0-23-9.61-23-21.45l-15.34-139.8h-9.93V411.83h95.43l23-206.84Z"/><rect class="cls-60" x="119.37" y="363.92" width="12.66" height="47.9"/><path class="cls-61" d="M125.71,106.76A53.38,53.38,0,1,0,72.33,53.39,53.38,53.38,0,0,0,125.71,106.76Z"/><path class="cls-62" d="M132,585.46c0,15.87,13.79,28.77,30.84,28.77s30.95-12.9,44.35-28.77V411.83H132Z"/><path class="cls-62" d="M57.7,585.46c0,15.87,13.82,28.77,30.85,28.77s30.82-12.9,30.82-28.77V411.83H57.59C57.65,495.43,57.7,574.8,57.7,585.46Z"/><path class="cls-62" d="M302.65,411.83l-.45,4.06,27.12-.71V585.46c0,15.87,13.92,28.77,30.95,28.77s30.84-12.9,30.84-28.77V412.54h9.3V585.46c0,15.87,13.8,28.77,30.85,28.77s30.95-12.9,30.95-28.77V415.18l27.12.71-.45-4.06Z"/><path class="cls-61" d="M465.9,205l8.17-1.05L497.5,344.41c0,11.83,10.32,21.45,23,21.45s22.72-9.61,22.72-21.45L519.79,189c-10.37-34.21-30.46-62.79-67.64-62.79H339.38c-37.18,0-60.57,28.27-67.64,62.79l-9.47,62.75L251.4,189c-4.76-34.52-30.46-62.79-67.64-62.79H67.65C30.44,126.19,0,154.32,0,189V341.06c0,11.83,10,21.45,22.7,21.45s23-9.6,23-21.45V203.94H57.44s.08,107,.15,207.89h61.78V363.92H132v47.91h75.19V203.94h9.93l15.34,139.8c0,11.84,10.32,21.45,23,21.45a23.89,23.89,0,0,0,6.78-1,23.91,23.91,0,0,0,8.74,1.63c12.69,0,23-9.62,23-21.45l23.43-140.47,8.17,1.05-23,206.84H488.88Z"/><path class="cls-61" d="M395.6,106.66v0h.33v0A53.31,53.31,0,0,0,395.93.1v0h-.33v0a53.31,53.31,0,0,0,0,106.56Z"/></g></g></svg>