<svg xmlns="http://www.w3.org/2000/svg" viewBox="0 0 1931 859.93"><defs><style>.cls-1{font-size:70px;}.cls-1,.cls-7{fill:#dbdbdb;font-family:WorkSans-Medium, Work Sans;font-weight:500;}.cls-2{letter-spacing:-0.1em;}.cls-3{letter-spacing:-0.01em;}.cls-4{letter-spacing:0em;}.cls-5{letter-spacing:-0.01em;}.cls-6{letter-spacing:-0.01em;}.cls-7{font-size:61.4px;}.cls-8{letter-spacing:-0.02em;}.cls-9{letter-spacing:0em;}.cls-10{letter-spacing:-0.06em;}.cls-11{letter-spacing:-0.02em;}.cls-12{fill:#ffbf00;}.cls-13{fill:#6a6e70;}.cls-14{fill:none;stroke:#ffbf00;stroke-miterlimit:10;stroke-width:4px;}.cls-15{letter-spacing:0em;}.cls-16{letter-spacing:-0.01em;}.cls-17{letter-spacing:-0.01em;}</style></defs><g id="Layer_2" data-name="Layer 2"><g id="Layer_2-2" data-name="Layer 2"><text class="cls-1" transform="translate(1151.72 58.1)"><tspan class="cls-2">T</tspan><tspan class="cls-3" x="35.98" y="0">e</tspan><tspan class="cls-4" x="75.39" y="0">v</tspan><tspan class="cls-5" x="112.63" y="0">r</tspan><tspan x="140.7" y="0">eden stude</tspan><tspan class="cls-6" x="525.9" y="0">n</tspan><tspan x="568.81" y="0">ten</tspan></text><text class="cls-7" transform="translate(74.11 51.49)">€2<tspan class="cls-8" x="79.08" y="0">0.</tspan><tspan class="cls-9" x="131.95" y="0">000</tspan></text><text class="cls-7" transform="translate(479.4 839.24)">H<tspan class="cls-10" x="45.19" y="0">A</tspan><tspan class="cls-11" x="82.09" y="0">V</tspan><tspan x="121.51" y="0">O</tspan></text><text class="cls-7" transform="translate(830.17 839.24)">MBO</text><text class="cls-7" transform="translate(85.47 409.45)">€1<tspan class="cls-8" x="67.72" y="0">0.</tspan><tspan class="cls-9" x="120.59" y="0">000</tspan></text><text class="cls-7" transform="translate(240.13 767.4)">€0</text><path class="cls-12" d="M375.7,609.08H605.14a30.39,30.39,0,0,1,30.39,30.39v0a30.39,30.39,0,0,1-30.39,30.39H375.7a0,0,0,0,1,0,0V609.08a0,0,0,0,1,0,0Z" transform="translate(-133.85 1145.09) rotate(-90)"/><path class="cls-13" d="M377.8,498.88H832.68a30.39,30.39,0,0,1,30.39,30.39v0a30.39,30.39,0,0,1-30.39,30.39H377.8a0,0,0,0,1,0,0V498.88A0,0,0,0,1,377.8,498.88Z" transform="translate(91.16 1149.71) rotate(-90)"/><path class="cls-12" d="M607.7,506.69h439.6a30.39,30.39,0,0,1,30.39,30.39v0a30.39,30.39,0,0,1-30.39,30.39H607.7a0,0,0,0,1,0,0V506.69A0,0,0,0,1,607.7,506.69Z" transform="translate(305.62 1379.78) rotate(-90)"/><path class="cls-13" d="M588.78,369.94h707.07a30.39,30.39,0,0,1,30.39,30.39v0a30.39,30.39,0,0,1-30.39,30.39H588.78a0,0,0,0,1,0,0V369.94a0,0,0,0,1,0,0Z" transform="translate(557.18 1357.84) rotate(-90)"/><polyline class="cls-14" points="349.97 6.39 349.97 771.41 1115 771.41"/><circle class="cls-12" cx="1899" cy="40.39" r="32"/><text class="cls-1" transform="translate(1063.24 158.1)"><tspan class="cls-15">O</tspan><tspan class="cls-6" x="51.87" y="0">n</tspan><tspan x="94.78" y="0">t</tspan><tspan class="cls-3" x="124.46" y="0">e</tspan><tspan x="163.87" y="0">v</tspan><tspan class="cls-16" x="201.11" y="0">r</tspan><tspan x="229.18" y="0">eden stude</tspan><tspan class="cls-17" x="614.38" y="0">n</tspan><tspan x="657.29" y="0">ten</tspan></text><circle class="cls-13" cx="1899" cy="140.39" r="32"/></g></g></svg>