<svg xmlns="http://www.w3.org/2000/svg" viewBox="0 0 1871.39 132.15"><defs><style>.cls-50{fill:#ffbf00;}.cls-51{fill:#6a6e70;}.cls-52{fill:none;}</style></defs><g id="Layer_2" data-name="Layer 2"><g id="Layer_2-2" data-name="Layer 2"><path class="cls-50" d="M153,34.78a10.25,10.25,0,0,0-10.44-10.44H104.33V10.43A10.24,10.24,0,0,0,93.9,0H59.12A10.24,10.24,0,0,0,48.69,10.43V24.34H10.43A10.25,10.25,0,0,0,0,34.78V57a10.86,10.86,0,0,0,.08,1.28,4.28,4.28,0,0,0-.08.81v62.6c0,5.91,4.74,10.43,10.93,10.43H142.09c6.19,0,10.93-4.52,10.93-10.43V59.12a3.59,3.59,0,0,0-.09-.81A9.07,9.07,0,0,0,153,57ZM55.64,10.43A3.28,3.28,0,0,1,59.12,7H93.9a3.28,3.28,0,0,1,3.47,3.47V24.34H55.64ZM7,34.78a3.28,3.28,0,0,1,3.47-3.48H142.58a3.29,3.29,0,0,1,3.48,3.48V57c0,.21,0,.42,0,.62a3,3,0,0,0-.24.86,3.32,3.32,0,0,1-2.5,2L90.42,72.33H62.6L9.74,60.51a3.32,3.32,0,0,1-2.5-2A3.74,3.74,0,0,0,7,57.65,4.21,4.21,0,0,1,7,57ZM142.09,125.2H10.93a3.37,3.37,0,0,1-3.64-3.48V66.92c.23.08.47.14.71.2L62.6,79.29H90.42L145,67.12c.24-.06.48-.12.71-.2v54.8A3.37,3.37,0,0,1,142.09,125.2Z"/><path class="cls-50" d="M344,34.78a10.25,10.25,0,0,0-10.44-10.44H295.26V10.43A10.24,10.24,0,0,0,284.83,0H250.05a10.24,10.24,0,0,0-10.43,10.43V24.34H201.36a10.25,10.25,0,0,0-10.43,10.44V57a10.86,10.86,0,0,0,.08,1.28,4.28,4.28,0,0,0-.08.81v62.6c0,5.91,4.74,10.43,10.93,10.43H333c6.19,0,10.93-4.52,10.93-10.43V59.12a4.28,4.28,0,0,0-.08-.81A10.86,10.86,0,0,0,344,57ZM246.57,10.43A3.28,3.28,0,0,1,250.05,7h34.78a3.28,3.28,0,0,1,3.47,3.47V24.34H246.57ZM197.89,34.78a3.28,3.28,0,0,1,3.47-3.48H333.51A3.29,3.29,0,0,1,337,34.78V57a4.21,4.21,0,0,1,0,.62,3,3,0,0,0-.24.86,3.32,3.32,0,0,1-2.5,2L281.35,72.33H253.53L200.67,60.51a3.32,3.32,0,0,1-2.5-2,3.74,3.74,0,0,0-.24-.86,4.21,4.21,0,0,1,0-.62ZM333,125.2H201.86a3.37,3.37,0,0,1-3.64-3.48V66.92c.23.08.47.14.71.2l54.6,12.17h27.82L336,67.12c.24-.06.48-.12.71-.2v54.8A3.37,3.37,0,0,1,333,125.2Z"/><path class="cls-50" d="M534.88,34.78a10.25,10.25,0,0,0-10.44-10.44H486.19V10.43A10.24,10.24,0,0,0,475.76,0H441a10.24,10.24,0,0,0-10.43,10.43V24.34H392.29a10.25,10.25,0,0,0-10.43,10.44V57a10.86,10.86,0,0,0,.08,1.28,4.28,4.28,0,0,0-.08.81v62.6c0,5.91,4.74,10.43,10.93,10.43H524c6.19,0,10.93-4.52,10.93-10.43V59.12a4.28,4.28,0,0,0-.08-.81,10.86,10.86,0,0,0,.08-1.28ZM437.5,10.43A3.28,3.28,0,0,1,441,7h34.78a3.28,3.28,0,0,1,3.47,3.47V24.34H437.5ZM388.82,34.78a3.28,3.28,0,0,1,3.47-3.48H524.44a3.29,3.29,0,0,1,3.48,3.48V57a4.21,4.21,0,0,1,0,.62,3,3,0,0,0-.24.86,3.32,3.32,0,0,1-2.5,2L472.28,72.33H444.46L391.6,60.51a3.32,3.32,0,0,1-2.5-2,3.74,3.74,0,0,0-.24-.86,4.21,4.21,0,0,1,0-.62ZM524,125.2H392.79a3.37,3.37,0,0,1-3.64-3.48V66.92c.23.08.47.14.71.2l54.6,12.17h27.82l54.6-12.17c.24-.06.48-.12.71-.2v54.8A3.37,3.37,0,0,1,524,125.2Z"/><path class="cls-50" d="M725.81,34.78a10.25,10.25,0,0,0-10.44-10.44H677.12V10.43A10.24,10.24,0,0,0,666.69,0H631.91a10.24,10.24,0,0,0-10.43,10.43V24.34H583.22a10.25,10.25,0,0,0-10.43,10.44V57a10.86,10.86,0,0,0,.08,1.28,4.28,4.28,0,0,0-.08.81v62.6c0,5.91,4.74,10.43,10.93,10.43H714.88c6.19,0,10.93-4.52,10.93-10.43V59.12a4.28,4.28,0,0,0-.08-.81,10.86,10.86,0,0,0,.08-1.28ZM628.43,10.43A3.28,3.28,0,0,1,631.91,7h34.78a3.28,3.28,0,0,1,3.47,3.47V24.34H628.43ZM579.75,34.78a3.28,3.28,0,0,1,3.47-3.48H715.37a3.29,3.29,0,0,1,3.48,3.48V57a4.21,4.21,0,0,1,0,.62,3,3,0,0,0-.24.86,3.32,3.32,0,0,1-2.5,2L663.21,72.33H635.39L582.53,60.51a3.32,3.32,0,0,1-2.5-2,3.74,3.74,0,0,0-.24-.86,4.21,4.21,0,0,1,0-.62ZM714.88,125.2H583.72a3.37,3.37,0,0,1-3.64-3.48V66.92c.23.08.47.14.71.2l54.6,12.17h27.82l54.6-12.17c.24-.06.48-.12.71-.2v54.8A3.37,3.37,0,0,1,714.88,125.2Z"/><path class="cls-50" d="M916.74,34.78a10.25,10.25,0,0,0-10.43-10.44H868.05V10.43A10.24,10.24,0,0,0,857.62,0H822.84a10.24,10.24,0,0,0-10.43,10.43V24.34H774.15a10.25,10.25,0,0,0-10.43,10.44V57a10.86,10.86,0,0,0,.08,1.28,4.28,4.28,0,0,0-.08.81v62.6c0,5.91,4.74,10.43,10.93,10.43H905.81c6.19,0,10.93-4.52,10.93-10.43V59.12a4.28,4.28,0,0,0-.08-.81,10.86,10.86,0,0,0,.08-1.28ZM819.36,10.43A3.28,3.28,0,0,1,822.84,7h34.78a3.29,3.29,0,0,1,3.48,3.47V24.34H819.36ZM770.68,34.78a3.28,3.28,0,0,1,3.47-3.48H906.31a3.28,3.28,0,0,1,3.47,3.48V57a4.21,4.21,0,0,1,0,.62,3.3,3.3,0,0,0-.24.86,3.32,3.32,0,0,1-2.5,2L854.14,72.33H826.32L773.46,60.51a3.32,3.32,0,0,1-2.5-2,3.3,3.3,0,0,0-.24-.86,4.21,4.21,0,0,1,0-.62ZM905.81,125.2H774.65a3.37,3.37,0,0,1-3.64-3.48V66.92c.23.08.47.14.71.2l54.6,12.17h27.82l54.6-12.17c.24-.06.48-.12.71-.2v54.8A3.37,3.37,0,0,1,905.81,125.2Z"/><path class="cls-50" d="M1107.67,34.78a10.25,10.25,0,0,0-10.43-10.44H1059V10.43A10.24,10.24,0,0,0,1048.55,0h-34.78a10.24,10.24,0,0,0-10.43,10.43V24.34H965.09a10.25,10.25,0,0,0-10.44,10.44V57a10.86,10.86,0,0,0,.08,1.28,4.28,4.28,0,0,0-.08.81v62.6c0,5.91,4.74,10.43,10.93,10.43h131.16c6.19,0,10.93-4.52,10.93-10.43V59.12a4.28,4.28,0,0,0-.08-.81,10.86,10.86,0,0,0,.08-1.28Zm-97.38-24.35A3.29,3.29,0,0,1,1013.77,7h34.78a3.29,3.29,0,0,1,3.48,3.47V24.34h-41.74ZM961.61,34.78a3.29,3.29,0,0,1,3.48-3.48h132.15a3.28,3.28,0,0,1,3.47,3.48V57a4.21,4.21,0,0,1,0,.62,3.3,3.3,0,0,0-.24.86,3.32,3.32,0,0,1-2.5,2l-52.86,11.82h-27.82L964.39,60.51a3.32,3.32,0,0,1-2.5-2,3.3,3.3,0,0,0-.24-.86,4.21,4.21,0,0,1,0-.62Zm135.13,90.42H965.58a3.37,3.37,0,0,1-3.64-3.48V66.92c.23.08.47.14.71.2l54.6,12.17h27.82l54.6-12.17c.24-.06.48-.12.71-.2v54.8A3.37,3.37,0,0,1,1096.74,125.2Z"/><path class="cls-50" d="M1298.6,34.78a10.25,10.25,0,0,0-10.43-10.44h-38.26V10.43A10.24,10.24,0,0,0,1239.48,0H1204.7a10.24,10.24,0,0,0-10.43,10.43V24.34H1156a10.25,10.25,0,0,0-10.44,10.44V57a10.86,10.86,0,0,0,.08,1.28,4.28,4.28,0,0,0-.08.81v62.6c0,5.91,4.74,10.43,10.93,10.43h131.16c6.19,0,10.93-4.52,10.93-10.43V59.12a4.28,4.28,0,0,0-.08-.81,10.86,10.86,0,0,0,.08-1.28Zm-97.38-24.35A3.29,3.29,0,0,1,1204.7,7h34.78a3.28,3.28,0,0,1,3.48,3.47V24.34h-41.74Zm-48.68,24.35A3.29,3.29,0,0,1,1156,31.3h132.15a3.28,3.28,0,0,1,3.47,3.48V57a4.21,4.21,0,0,1,0,.62,3.74,3.74,0,0,0-.24.86,3.32,3.32,0,0,1-2.5,2L1236,72.33h-27.82l-52.86-11.82a3.32,3.32,0,0,1-2.5-2,3.3,3.3,0,0,0-.24-.86,4.21,4.21,0,0,1,0-.62Zm135.13,90.42H1156.51a3.37,3.37,0,0,1-3.64-3.48V66.92c.23.08.47.14.71.2l54.6,12.17H1236l54.6-12.17c.24-.06.48-.12.71-.2v54.8A3.37,3.37,0,0,1,1287.67,125.2Z"/><path class="cls-50" d="M1489.53,34.78a10.25,10.25,0,0,0-10.43-10.44h-38.26V10.43A10.24,10.24,0,0,0,1430.41,0h-34.78a10.24,10.24,0,0,0-10.43,10.43V24.34H1347a10.25,10.25,0,0,0-10.44,10.44V57a10.86,10.86,0,0,0,.08,1.28,4.28,4.28,0,0,0-.08.81v62.6c0,5.91,4.74,10.43,10.93,10.43H1478.6c6.19,0,10.93-4.52,10.93-10.43V59.12a4.28,4.28,0,0,0-.08-.81,10.86,10.86,0,0,0,.08-1.28Zm-97.37-24.35A3.28,3.28,0,0,1,1395.63,7h34.78a3.28,3.28,0,0,1,3.48,3.47V24.34h-41.73Zm-48.69,24.35A3.29,3.29,0,0,1,1347,31.3H1479.1a3.28,3.28,0,0,1,3.47,3.48V57a4.21,4.21,0,0,1,0,.62,3.74,3.74,0,0,0-.24.86,3.32,3.32,0,0,1-2.5,2l-52.86,11.82h-27.82l-52.86-11.82a3.32,3.32,0,0,1-2.5-2,3,3,0,0,0-.24-.86,4.21,4.21,0,0,1,0-.62ZM1478.6,125.2H1347.44a3.37,3.37,0,0,1-3.64-3.48V66.92c.23.08.47.14.71.2l54.6,12.17h27.82l54.6-12.17c.24-.06.48-.12.71-.2v54.8A3.37,3.37,0,0,1,1478.6,125.2Z"/><path class="cls-51" d="M1871.39,34.78A10.25,10.25,0,0,0,1861,24.34H1822.7V10.43A10.24,10.24,0,0,0,1812.27,0h-34.78a10.24,10.24,0,0,0-10.43,10.43V24.34h-38.25a10.25,10.25,0,0,0-10.44,10.44V57a9.07,9.07,0,0,0,.09,1.28,3.59,3.59,0,0,0-.09.81v62.6c0,5.91,4.74,10.43,10.93,10.43h131.16c6.19,0,10.93-4.52,10.93-10.43V59.12a4.28,4.28,0,0,0-.08-.81,10.86,10.86,0,0,0,.08-1.28ZM1774,10.43A3.28,3.28,0,0,1,1777.49,7h34.78a3.28,3.28,0,0,1,3.48,3.47V24.34H1774Zm-48.69,24.35a3.29,3.29,0,0,1,3.48-3.48H1861a3.28,3.28,0,0,1,3.47,3.48V57a4.21,4.21,0,0,1,0,.62,3.74,3.74,0,0,0-.24.86,3.32,3.32,0,0,1-2.5,2l-52.86,11.82H1781l-52.86-11.82a3.32,3.32,0,0,1-2.5-2,3.29,3.29,0,0,0-.23-.86,4.21,4.21,0,0,1-.05-.62Zm135.13,90.42H1729.3a3.37,3.37,0,0,1-3.64-3.48V66.92c.23.08.47.14.71.2L1781,79.29h27.82l54.6-12.17c.24-.06.48-.12.71-.2v54.8A3.37,3.37,0,0,1,1860.46,125.2Z"/><path class="cls-52" d="M1590,79.29l-54.6-12.17c-.24-.06-.48-.12-.71-.2v54.8a3.36,3.36,0,0,0,3.64,3.47h96.72V75.45l-17.23,3.84Z"/><path class="cls-52" d="M1670.72,60.51a3.32,3.32,0,0,0,2.5-2,3.74,3.74,0,0,1,.24-.86,4.21,4.21,0,0,0,0-.62V34.78A3.28,3.28,0,0,0,1670,31.3h-34.94V68.48Z"/><path class="cls-52" d="M1534.4,34.78V57a4.21,4.21,0,0,0,0,.62,3,3,0,0,1,.24.86,3.32,3.32,0,0,0,2.5,2L1590,72.34h27.82l17.23-3.86V31.3h-97.21A3.29,3.29,0,0,0,1534.4,34.78Z"/><path class="cls-52" d="M1669.53,125.19a3.36,3.36,0,0,0,3.64-3.47V66.92c-.23.08-.47.14-.71.2l-37.37,8.33v49.74Z"/><path class="cls-52" d="M1624.82,10.43A3.28,3.28,0,0,0,1621.34,7h-34.78a3.28,3.28,0,0,0-3.47,3.47V24.34h41.73Z"/><path class="cls-50" d="M1538.37,125.19a3.36,3.36,0,0,1-3.64-3.47V66.92c.23.08.47.14.71.2L1590,79.29h27.82l17.23-3.84v-7l-17.23,3.86H1590l-52.86-11.83a3.32,3.32,0,0,1-2.5-2,3,3,0,0,0-.24-.86,4.21,4.21,0,0,1,0-.62V34.78a3.29,3.29,0,0,1,3.48-3.48h97.21v-7h-3.32V10.43A10.24,10.24,0,0,0,1621.34,0h-34.78a10.24,10.24,0,0,0-10.43,10.43V24.34h-38.25a10.25,10.25,0,0,0-10.44,10.44V57a9.07,9.07,0,0,0,.09,1.28,3.59,3.59,0,0,0-.09.81v62.6c0,5.91,4.74,10.43,10.93,10.43h96.72v-7Zm44.72-114.76A3.28,3.28,0,0,1,1586.56,7h34.78a3.28,3.28,0,0,1,3.48,3.47V24.34h-41.73Z"/><path class="cls-51" d="M1680.46,34.78A10.25,10.25,0,0,0,1670,24.34h-34.94v7H1670a3.28,3.28,0,0,1,3.47,3.48V57a4.21,4.21,0,0,1,0,.62,3.74,3.74,0,0,0-.24.86,3.32,3.32,0,0,1-2.5,2l-35.63,8v7l37.37-8.33c.24-.06.48-.12.71-.2v54.8a3.36,3.36,0,0,1-3.64,3.47h-34.44v7h34.44c6.19,0,10.93-4.52,10.93-10.43V59.12a4.28,4.28,0,0,0-.08-.81,10.86,10.86,0,0,0,.08-1.28Z"/></g></g></svg>