<svg xmlns="http://www.w3.org/2000/svg" viewBox="0 0 672.91 581.15"><defs><style>.cls-briefcase{fill:#ffbf00;}</style></defs><g id="Layer_2" data-name="Layer 2"><g id="Layer_2-2" data-name="Layer 2"><path class="cls-briefcase" d="M672.91,152.93c0-26-19.88-45.88-45.88-45.88H458.8V45.88c0-26-19.88-45.88-45.88-45.88H260c-26,0-45.88,19.88-45.88,45.88v61.17H45.88c-26,0-45.88,19.89-45.88,45.88v97.88a45.18,45.18,0,0,0,.36,5.61A17.85,17.85,0,0,0,0,260V535.27c0,26,20.83,45.88,48.06,45.88H624.85c27.23,0,48.06-19.88,48.06-45.88V260a17.85,17.85,0,0,0-.36-3.57,45.18,45.18,0,0,0,.36-5.61Zm-428.22-107c0-9.18,6.12-15.29,15.3-15.29H412.92c9.18,0,15.29,6.12,15.29,15.29v61.17H244.69ZM30.59,152.93c0-9.17,6.12-15.29,15.29-15.29H627c9.18,0,15.29,6.12,15.29,15.29v97.88a18.21,18.21,0,0,1-.2,2.69,15.87,15.87,0,0,0-1,3.8,14.61,14.61,0,0,1-11,8.8l-232.46,52H275.28l-232.46-52a14.63,14.63,0,0,1-11-8.82,15.71,15.71,0,0,0-1-3.78,18.35,18.35,0,0,1-.2-2.7ZM624.85,550.56H48.06c-9.61,0-16-6.11-16-15.29v-241c1,.32,2.08.61,3.14.85l240.1,53.53H397.63l240.11-53.53c1-.24,2.1-.53,3.13-.85v241C640.87,544.45,634.46,550.56,624.85,550.56Z"/></g></g></svg>