<svg xmlns="http://www.w3.org/2000/svg" viewBox="0 0 829.03 592.76"><defs><style>.cls-drugs{fill:#ffbf00;}</style></defs><g id="Layer_2" data-name="Layer 2"><g id="Layer_2-2" data-name="Layer 2"><path class="cls-drugs" d="M169.35,323.22a9.72,9.72,0,0,0,6.88-16.59L91.46,221.86a9.72,9.72,0,0,0-13.75,13.75l84.77,84.77A9.73,9.73,0,0,0,169.35,323.22Z"/><path class="cls-drugs" d="M127,398.09a127,127,0,1,1,127-127A127.12,127.12,0,0,1,127,398.09Zm0-234.52A107.55,107.55,0,1,0,234.52,271.12,107.68,107.68,0,0,0,127,163.57Z"/><path class="cls-drugs" d="M744.44,418.46a9.72,9.72,0,0,0,6.87-16.59L666.55,317.1a9.72,9.72,0,0,0-13.75,13.74l84.77,84.77A9.66,9.66,0,0,0,744.44,418.46Z"/><path class="cls-drugs" d="M702.06,493.33a127,127,0,1,1,127-127A127.12,127.12,0,0,1,702.06,493.33Zm0-234.52A107.55,107.55,0,1,0,809.6,366.36,107.66,107.66,0,0,0,702.06,258.81Z"/><path class="cls-drugs" d="M562.25,98.09,398.58,11.56a99.25,99.25,0,0,0-141.24,117A98.6,98.6,0,0,0,305.8,187l163.67,86.54q2.77,1.46,5.58,2.73a99.33,99.33,0,0,0,125-37.95q1.86-3,3.52-6.13A99.37,99.37,0,0,0,562.25,98.09ZM314.89,169.85A79.8,79.8,0,0,1,328.68,23a79.32,79.32,0,0,1,60.81,5.71l73.25,38.73L388.13,208.58Zm271.53,53.29a79.91,79.91,0,0,1-107.86,33.25l-73.24-38.73,74.6-141.1,73.24,38.72a79.9,79.9,0,0,1,33.26,107.86Z"/><path class="cls-drugs" d="M217.83,405.78,381.5,319.25a99.25,99.25,0,1,1,92.78,175.48L310.61,581.27q-2.78,1.46-5.58,2.73a99.33,99.33,0,0,1-125-38c-1.24-2-2.41-4-3.52-6.14a99.36,99.36,0,0,1,41.35-134.13Zm247.36,71.76A79.8,79.8,0,0,0,451.4,330.72a79.32,79.32,0,0,0-60.81,5.71l-73.25,38.73L392,516.27ZM193.66,530.83a79.91,79.91,0,0,0,107.86,33.25l73.24-38.73-74.6-141.11L226.92,423a79.9,79.9,0,0,0-33.26,107.86Z"/></g></g></svg>