<svg xmlns="http://www.w3.org/2000/svg" viewBox="0 0 609.03 577.15"><defs><style>.cls-euro{fill:#ffbf00;}</style></defs><g id="Layer_2" data-name="Layer 2"><g id="Layer_2-2" data-name="Layer 2"><path class="cls-euro" d="M526.93,401,609,477.5a259.09,259.09,0,0,1-98.45,74.14Q452,577.14,379.45,577.15q-69.36,0-128.74-24.71T149.87,482.28A272.6,272.6,0,0,1,90.08,377.06H0v-67H78.12a213.61,213.61,0,0,1-.79-21.53,213.38,213.38,0,0,1,.79-21.52H0v-67H90.08A272.64,272.64,0,0,1,149.87,94.86Q191.3,49.42,250.71,24.71T379.45,0Q452,0,510.58,25.51T609,98.85l-82.1,76.53Q468.73,110,385.83,110q-52.62,0-94.07,23.91A162.64,162.64,0,0,0,228,200.09H429.67v67H208.06a209.76,209.76,0,0,0-.8,21.52,210,210,0,0,0,.8,21.53H429.67v67H228a162.5,162.5,0,0,0,63.77,66.16q41.44,23.92,94.07,23.92Q469.53,467.14,526.93,401Z"/></g></g></svg>