<svg xmlns="http://www.w3.org/2000/svg" viewBox="0 0 664.73 583.85"><defs><style>.cls-house{fill:#ffbf00;}</style></defs><g id="Layer_2" data-name="Layer 2"><g id="Layer_2-2" data-name="Layer 2"><path class="cls-house" d="M659.89,273.91,349.67,20.37a27.36,27.36,0,0,0-34.62,0L235.59,85.32V13.16A13.15,13.15,0,0,0,222.42,0H146a13.16,13.16,0,0,0-13.17,13.16V169.35L4.84,273.91a13.18,13.18,0,0,0,16.68,20.41L87.93,240V570.68a13.17,13.17,0,0,0,13.16,13.17H563.64a13.18,13.18,0,0,0,13.18-13.17V240l66.41,54.29a13.18,13.18,0,0,0,16.66-20.42ZM159.12,26.33h50.12v80.52l-50.12,41ZM550.48,557.51H114.26v-339l206.83-169a17.82,17.82,0,0,1,22.55,0l206.84,169Z"/></g></g></svg>