<svg xmlns="http://www.w3.org/2000/svg" viewBox="0 0 591.97 584.23"><defs><style>.cls-malefemale{fill:#ffbf00;}</style></defs><g id="Layer_2" data-name="Layer 2"><g id="Layer_2-2" data-name="Layer 2"><path class="cls-malefemale" d="M472.42,0a50.77,50.77,0,1,0,50.75,50.78A50.76,50.76,0,0,0,472.42,0ZM417.2,120c-35.39,0-64.35,26.76-64.35,59.73V324.4c0,11.26,9.5,20.4,21.59,20.4s21.89-9.13,21.89-20.4V194h11.15s.25,340.52.25,362.89c0,15.09,13.15,27.36,29.35,27.36s29.31-12.27,29.31-27.36V346.15h12V556.87c0,15.09,13.12,27.36,29.34,27.36S537.2,572,537.2,556.87V194h11.28V324.4c0,11.26,9.82,20.4,21.89,20.4s21.6-9.13,21.6-20.4V179.75c0-33-29-59.73-64.33-59.73Z"/><path class="cls-malefemale" d="M258.23,179.75c-9.87-32.54-29-59.73-64.34-59.73H86.63c-35.36,0-54.47,27.19-64.34,59.73L0,327.59C0,338.85,9.51,348,21.6,348s21.89-9.15,21.89-20.4L65.78,194l7.77,1L51.26,395.57l25.8-.67v162c0,15.09,13.24,27.36,29.44,27.36s29.34-12.27,29.34-27.36V392.39h8.84V556.87c0,15.09,13.12,27.36,29.34,27.36s29.44-12.27,29.44-27.36v-162l25.8.67L207,195l7.77-1L237,327.59c0,11.25,9.81,20.4,21.88,20.4s21.61-9.14,21.61-20.4Z"/><path class="cls-malefemale" d="M140.1,101.45v0h.32v0A50.7,50.7,0,0,0,140.42.1v0h-.32v0a50.7,50.7,0,0,0,0,101.35Z"/></g></g></svg>