<svg xmlns="http://www.w3.org/2000/svg" viewBox="0 0 517 584.58"><defs><style>.cls-partners{fill:#ffbf00;}</style></defs><g id="Layer_2" data-name="Layer 2"><g id="Layer_2-2" data-name="Layer 2"><path class="cls-partners" d="M119.64,101.6a50.8,50.8,0,1,0-50.8-50.79A50.79,50.79,0,0,0,119.64,101.6Z"/><path class="cls-partners" d="M494.69,179.86c-9.87-32.56-29-59.77-64.37-59.77H323c-35.38,0-57.64,26.91-64.37,59.77l-9,59.72-10.34-59.72c-4.54-32.86-29-59.77-64.38-59.77H64.39C29,120.09,0,146.87,0,179.86V324.59C0,335.86,9.51,345,21.6,345s21.91-9.14,21.91-20.42V194.09H54.66s.26,340.72.26,363.1c0,15.11,13.15,27.39,29.36,27.39s29.32-12.28,29.32-27.39V346.35h12.05V557.19c0,15.11,13.13,27.39,29.36,27.39s29.45-12.28,42.21-27.39V194.09h9.45l14.59,133c0,11.27,9.82,20.42,21.9,20.42a23.13,23.13,0,0,0,6.46-.91,22.9,22.9,0,0,0,8.31,1.54c12.08,0,21.9-9.15,21.9-20.41l22.3-133.69,7.78,1L287.6,395.81l25.82-.68V557.19c0,15.1,13.24,27.39,29.45,27.39s29.36-12.28,29.36-27.39V392.62h8.85V557.19c0,15.11,13.13,27.39,29.36,27.39s29.45-12.29,29.45-27.39V395.13l25.82.68L443.4,195.09l7.78-1,22.3,133.69c0,11.26,9.82,20.41,21.9,20.41S517,339.05,517,327.78Z"/><path class="cls-partners" d="M376.5,101.51v0h.31v0A50.73,50.73,0,0,0,376.81.1v0h-.31v0a50.73,50.73,0,0,0,0,101.41Z"/></g></g></svg>